<?xml version="1.0" standalone="no"?>
<!DOCTYPE svg PUBLIC "-//W3C//DTD SVG 20010904//EN"
 "http://www.w3.org/TR/2001/REC-SVG-20010904/DTD/svg10.dtd">
<svg version="1.0" xmlns="http://www.w3.org/2000/svg"
 width="500.000000pt" height="500.000000pt" viewBox="0 0 500.000000 500.000000"
 preserveAspectRatio="xMidYMid meet">

<g transform="translate(0.000000,500.000000) scale(0.100000,-0.100000)"
fill="#000000" stroke="none">
<path d="M2380 3314 c-193 -51 -338 -192 -406 -394 -22 -67 -27 -241 -6 -247
7 -3 12 -22 12 -48 0 -66 6 -75 52 -75 34 0 39 3 33 18 -41 98 -47 240 -15
343 40 131 139 242 265 299 286 131 623 -34 691 -338 19 -86 15 -191 -10 -261
-9 -24 -15 -45 -14 -47 2 -1 15 -5 29 -9 25 -6 28 -3 45 47 15 40 19 81 19
173 -1 111 -3 126 -33 200 -90 224 -285 356 -523 354 -46 0 -109 -7 -139 -15z"/>
<path d="M2755 3040 c-4 -13 -1 -30 9 -43 51 -69 69 -105 83 -162 21 -86 11
-158 -33 -242 -44 -81 -40 -103 12 -68 20 14 40 25 45 25 4 0 18 21 30 48 30
66 37 199 15 275 -23 78 -94 181 -128 185 -20 2 -28 -2 -33 -18z"/>
<path d="M2892 2431 c-53 -61 -59 -75 -42 -101 8 -12 16 -8 51 25 44 43 99
112 99 127 0 4 -12 8 -28 8 -21 0 -40 -14 -80 -59z"/>
<path d="M2030 2474 c0 -3 14 -26 32 -50 l32 -45 -58 -58 c-54 -54 -57 -60
-54 -100 l3 -43 81 76 81 75 41 -30 40 -30 35 24 35 23 -44 28 c-45 29 -134
113 -134 128 0 4 -20 8 -45 8 -25 0 -45 -3 -45 -6z"/>
<path d="M2700 2300 c-25 -10 -53 -21 -62 -24 -12 -4 -18 -16 -18 -36 0 -16 2
-30 5 -30 18 0 132 44 143 55 11 10 11 17 3 34 -14 25 -13 25 -71 1z"/>
<path d="M2370 2258 c-19 -5 -39 -13 -44 -18 -12 -11 55 -29 137 -37 l67 -6 0
30 c0 27 -4 31 -37 37 -50 8 -80 6 -123 -6z"/>
<path d="M1855 2170 c-16 -4 -39 -11 -50 -18 -11 -6 -161 -152 -332 -324 -281
-282 -313 -318 -313 -347 0 -43 38 -81 82 -81 29 0 64 32 356 324 266 265 323
327 317 342 -4 11 -13 39 -19 64 -11 44 -12 46 -41 40z"/>
</g>
</svg>
